<?xml version="1.0" standalone="no"?>
<!DOCTYPE svg PUBLIC "-//W3C//DTD SVG 20010904//EN"
 "http://www.w3.org/TR/2001/REC-SVG-20010904/DTD/svg10.dtd">
<svg version="1.0" xmlns="http://www.w3.org/2000/svg"
 width="370.000000pt" height="370.000000pt" viewBox="0 0 370.000000 370.000000"
 preserveAspectRatio="xMidYMid meet">
<metadata>
Created by potrace 1.11, written by Peter Selinger 2001-2013
</metadata>
<g transform="translate(0.000000,370.000000) scale(0.100000,-0.100000)"
fill="#000000" stroke="none">
<path d="M3170 2710 c-6 -11 -19 -20 -29 -20 -10 0 -26 -11 -35 -25 -9 -14
-12 -25 -7 -25 6 0 14 6 18 13 4 7 25 23 46 36 20 12 37 27 37 32 0 16 -19 9
-30 -11z"/>
<path d="M3258 2693 c-45 -7 -32 -23 17 -21 29 2 45 7 45 15 0 13 -10 14 -62
6z"/>
<path d="M3057 2656 c-4 -10 -1 -13 8 -9 8 3 12 9 9 14 -7 12 -11 11 -17 -5z"/>
<path d="M3246 2653 c-39 -4 -66 -22 -66 -42 0 -6 -4 -11 -10 -11 -5 0 -10 7
-10 15 0 23 -20 18 -42 -10 -11 -14 -26 -25 -34 -25 -8 0 -17 -7 -20 -15 -9
-23 -26 -18 -19 5 4 12 2 20 -5 20 -6 0 -8 -5 -4 -12 5 -8 0 -9 -17 -4 -13 4
-35 10 -49 13 -20 4 -19 1 9 -14 38 -21 52 -43 28 -43 -19 0 -69 -39 -62 -50
3 -4 -1 -13 -9 -19 -20 -17 -28 -71 -14 -89 10 -11 9 -17 -5 -27 -14 -10 -15
-14 -4 -18 18 -7 11 -51 -9 -68 -9 -7 -14 -31 -14 -65 0 -29 -4 -56 -10 -59
-5 -3 -10 -17 -10 -31 0 -13 -6 -33 -12 -44 -10 -16 -10 -24 0 -40 14 -24 16
-62 2 -76 -5 -5 -14 -37 -19 -69 -6 -33 -15 -80 -21 -105 -6 -25 -18 -103 -25
-175 -8 -71 -19 -164 -25 -205 -6 -41 -10 -122 -9 -180 0 -58 -2 -131 -6 -162
-6 -41 -4 -58 4 -58 17 0 13 -19 -9 -47 -15 -19 -20 -40 -19 -82 0 -46 2 -52
10 -32 13 33 25 17 33 -45 5 -38 3 -54 -8 -63 -10 -9 -16 -8 -26 4 -14 17
-110 21 -110 5 0 -15 -26 -12 -39 4 -12 14 -129 46 -190 52 -20 1 -48 6 -64
10 -17 4 -33 1 -44 -7 -18 -16 -110 -21 -119 -7 -3 5 -40 6 -85 2 -53 -4 -79
-3 -79 5 0 6 -27 9 -72 8 -40 -1 -85 2 -99 6 -22 7 -27 5 -32 -14 l-6 -23 -24
22 c-22 20 -35 23 -116 23 -50 1 -93 5 -97 10 -9 15 -24 10 -24 -8 0 -15 -1
-15 -12 -1 -16 19 -73 28 -110 17 -19 -5 -27 -4 -25 4 1 8 -15 12 -48 12 -27
0 -56 4 -63 9 -9 5 -19 1 -28 -12 -11 -16 -24 -20 -63 -19 -27 1 -53 6 -57 10
-4 4 -19 7 -33 8 l-26 1 25 7 c19 6 8 9 -45 15 -38 4 -79 8 -90 9 -11 0 -23 4
-26 9 -3 4 -42 13 -88 19 -74 10 -84 9 -102 -7 -19 -17 -21 -17 -50 0 -28 16
-32 16 -54 2 -14 -9 -25 -20 -25 -23 0 -4 5 -2 12 5 19 19 49 14 55 -8 6 -22
19 -26 26 -7 3 9 10 9 30 -2 l27 -14 0 -176 c1 -203 3 -211 69 -208 33 2 44
-2 55 -18 11 -17 11 -24 1 -38 -16 -22 -41 -22 -54 0 -16 29 -22 9 -8 -27 9
-26 9 -34 0 -37 -7 -3 -13 -11 -13 -19 0 -8 -10 -14 -21 -14 -19 0 -21 4 -15
31 8 40 -14 58 -66 59 -41 0 -54 -23 -18 -33 27 -7 37 -54 15 -71 -23 -17 -13
-81 15 -96 29 -16 25 -40 -6 -40 -23 0 -25 -2 -13 -16 8 -9 12 -35 10 -62 -1
-26 0 -45 2 -42 5 5 14 49 16 78 1 6 13 12 27 12 14 0 32 7 40 15 12 12 12 15
2 15 -21 0 -21 71 1 77 9 2 21 14 26 25 14 30 35 34 42 9 6 -25 23 -28 23 -5
0 10 6 14 14 11 11 -4 16 4 18 31 3 32 6 37 28 37 23 0 25 -4 28 -50 2 -31 9
-53 18 -58 11 -7 13 -19 9 -52 -8 -51 0 -82 20 -82 13 0 13 3 1 16 -19 23 -9
41 24 41 24 0 29 -5 33 -27 3 -23 4 -22 6 9 0 20 4 43 7 51 4 12 0 14 -14 10
-15 -4 -20 2 -25 26 -5 25 -12 31 -32 31 -15 0 -25 6 -25 14 0 16 34 31 50 21
5 -3 10 3 10 14 0 34 62 105 98 112 27 6 32 4 32 -13 0 -15 5 -18 19 -13 13 4
27 -1 40 -14 13 -13 34 -21 55 -21 42 0 53 -14 36 -45 -16 -30 -9 -47 26 -65
36 -19 60 -46 79 -89 19 -43 19 -70 0 -77 -22 -9 -47 15 -40 37 4 11 4 19 2
19 -6 0 -49 -72 -45 -75 2 -2 20 -10 40 -18 21 -9 38 -23 38 -31 0 -9 5 -16
10 -16 6 0 10 11 10 25 0 14 4 25 9 25 11 0 71 58 71 69 0 5 -7 14 -16 22 -8
7 -13 21 -10 31 2 11 -2 22 -10 25 -8 3 -14 13 -14 24 0 13 10 20 34 25 20 3
37 13 39 23 4 14 5 14 6 -1 1 -11 9 -18 20 -18 27 0 35 17 11 23 -23 6 -28 47
-6 47 24 0 30 22 11 37 -24 17 -54 18 -37 1 7 -7 12 -18 12 -25 0 -18 -112 -5
-123 14 -6 10 -17 13 -33 9 -30 -8 -30 1 0 37 l23 28 64 -12 c35 -8 67 -17 70
-21 7 -10 43 -11 95 -3 54 9 84 -7 84 -43 0 -16 5 -33 12 -40 14 -14 78 -16
78 -2 0 6 7 10 16 10 10 0 13 -6 9 -19 -4 -13 0 -20 15 -24 11 -3 20 -12 20
-21 0 -11 9 -16 30 -16 23 0 30 4 30 20 0 14 11 22 41 30 23 6 54 25 68 41 15
16 30 26 34 23 11 -12 8 -52 -5 -56 -19 -7 -1 -38 22 -38 29 0 25 -28 -5 -36
-14 -3 -25 -10 -25 -15 0 -16 -32 -10 -46 8 -7 10 -16 14 -21 9 -4 -5 -2 -11
5 -13 24 -9 13 -33 -15 -33 -38 0 -49 -10 -57 -47 -7 -31 -6 -32 31 -38 21 -3
46 -10 55 -16 31 -16 48 -11 48 16 0 31 24 42 47 24 14 -12 16 -12 9 0 -5 8
-3 17 5 22 20 13 29 11 29 -6 0 -8 -4 -15 -10 -15 -23 0 -7 -21 20 -27 29 -5
43 -33 17 -33 -11 0 -47 -34 -47 -44 0 -3 30 -4 68 -3 42 0 56 3 37 6 -37 7
-51 51 -16 51 11 0 23 -4 26 -10 11 -18 24 -11 47 25 39 59 66 41 49 -33 l-9
-42 39 0 c32 0 39 3 39 20 0 26 17 26 25 0 5 -16 15 -20 46 -20 41 0 53 14 19
23 -14 3 -20 14 -20 31 0 19 -5 26 -19 26 -10 0 -21 7 -24 14 -3 8 -24 20 -46
26 -61 16 -50 50 15 50 14 0 22 4 19 10 -3 6 4 10 17 10 21 1 58 21 58 31 0 3
-16 13 -35 23 -19 11 -35 25 -35 33 0 22 -49 15 -86 -13 -39 -30 -43 -44 -14
-44 14 0 20 -7 20 -21 0 -17 -4 -20 -24 -15 -18 4 -26 1 -29 -11 -4 -17 -5
-17 -6 0 0 9 -6 17 -12 17 -7 0 -9 10 -5 25 4 17 2 25 -6 25 -7 0 -19 4 -27 9
-12 8 -12 12 -2 25 12 14 9 16 -21 16 -32 0 -58 14 -58 32 0 4 18 8 40 8 26 0
40 5 40 13 0 17 65 10 81 -9 8 -10 15 -11 24 -4 7 6 23 6 43 1 22 -7 34 -6 42
3 18 22 54 7 75 -32 23 -43 68 -58 97 -34 14 12 21 12 32 3 8 -7 25 -9 39 -6
27 7 76 -20 77 -41 0 -17 -31 -27 -44 -14 -18 18 -95 4 -116 -21 -9 -11 -50
-17 -50 -8 0 5 -12 2 -26 -7 -17 -11 -24 -24 -21 -36 7 -24 -28 -25 -42 -1 -8
15 -10 15 -11 3 0 -20 35 -50 59 -50 11 0 23 9 26 20 3 11 14 24 23 29 27 13
130 22 137 11 8 -13 -24 -60 -41 -60 -8 0 -23 -9 -34 -20 -21 -21 -50 -27 -50
-10 0 6 -7 10 -15 10 -8 0 -15 -4 -15 -10 0 -5 5 -10 10 -10 6 0 10 -9 10 -20
0 -23 0 -23 34 -10 14 5 43 10 63 12 21 1 41 7 45 12 4 6 20 11 35 11 21 0 29
5 31 22 2 13 -1 23 -7 23 -18 0 -12 16 18 48 28 31 57 34 89 9 8 -7 12 -5 12
7 0 19 23 31 40 21 7 -4 7 -12 0 -25 -7 -13 -7 -21 0 -25 5 -3 10 -15 10 -27
0 -17 -4 -19 -27 -12 -34 9 -84 7 -94 -3 -4 -5 -11 -25 -14 -45 -7 -34 -5 -38
20 -44 15 -4 30 -3 34 2 6 9 36 29 59 40 7 4 23 -5 35 -20 20 -22 31 -26 80
-26 31 0 57 4 57 10 0 6 9 10 19 10 11 0 23 -4 26 -10 10 -16 45 -12 45 5 0 8
6 15 14 15 7 0 19 -7 26 -15 14 -17 56 -20 65 -5 5 8 11 7 21 -1 21 -17 17 5
-6 31 -26 30 -11 50 40 50 30 0 43 -6 59 -27 13 -15 19 -34 16 -45 -6 -16 0
-18 67 -18 62 0 75 3 86 20 16 25 34 25 57 0 29 -32 45 -25 45 18 0 60 -39 81
-88 46 -22 -15 -62 -11 -62 7 0 5 -10 9 -23 9 -13 0 -28 5 -34 11 -8 8 -13 8
-17 0 -10 -16 -53 -13 -60 4 -3 9 -18 15 -40 15 -29 0 -37 4 -42 24 -3 13 -19
33 -35 46 -18 13 -28 28 -25 36 3 8 -1 14 -9 14 -8 0 -15 -4 -15 -10 0 -5 -11
-10 -25 -10 -15 0 -25 -6 -25 -15 0 -11 8 -13 32 -8 33 6 33 6 17 -18 -25 -37
-55 -36 -79 3 -23 38 -25 57 -7 62 78 22 117 26 134 17 10 -6 30 -15 46 -21
21 -7 27 -16 27 -40 0 -34 7 -38 25 -13 14 19 35 9 35 -18 0 -10 6 -19 14 -19
19 0 29 30 15 47 -9 10 -9 19 1 38 11 21 19 24 57 21 24 -2 46 -6 49 -9 7 -7
-26 -43 -46 -49 -10 -3 -2 -13 25 -31 48 -33 57 -33 70 -6 14 30 26 28 51 -9
21 -31 22 -31 28 -9 3 12 6 144 6 293 l0 272 -25 4 c-14 3 -25 2 -25 -2 0 -3
-13 -5 -30 -2 -25 4 -30 9 -31 33 -1 16 -2 35 -3 42 -1 6 7 11 17 9 9 -2 20 3
23 11 2 7 20 20 39 27 l35 14 0 173 0 173 -177 -2 c-175 -2 -178 -2 -188 20
-12 27 -37 39 -33 15 2 -9 -3 -18 -11 -21 -10 -3 -12 0 -8 11 4 11 0 13 -14
10 -10 -3 -19 0 -19 6 0 6 6 11 13 11 6 0 3 7 -8 16 -15 11 -17 17 -7 23 6 4
14 30 16 58 4 44 2 52 -15 56 -13 3 -17 11 -13 21 4 11 0 16 -12 16 -13 1 -10
5 11 15 29 13 29 14 8 20 -12 4 -24 14 -27 22 -5 12 -9 13 -20 4 -9 -7 -17 -8
-20 -3 -3 6 6 13 20 16 24 6 25 10 23 66 -2 58 13 96 32 84 13 -8 11 10 -2 23
-6 6 -18 9 -25 6 -26 -10 -14 16 13 31 24 12 27 19 24 58 -1 31 3 48 13 57 25
21 19 32 -11 20 -29 -11 -58 -5 -48 11 3 5 14 10 25 10 10 0 21 8 25 18 12 26
15 83 4 77 -5 -4 -9 -14 -9 -23 0 -15 -2 -15 -10 -2 -5 8 -10 27 -10 42 0 24
4 27 30 25 28 -2 30 -5 30 -41 0 -22 2 -37 4 -35 9 9 13 120 5 125 -15 9 -10
21 11 27 12 3 20 14 20 25 0 12 5 24 10 27 6 3 10 13 10 21 0 8 -4 14 -10 14
-5 0 -10 -7 -10 -15 0 -10 -10 -15 -30 -15 -29 0 -40 13 -21 25 10 6 6 149 -4
165 -3 6 1 7 9 4 19 -7 21 16 4 35 -11 11 -10 13 2 9 8 -3 20 2 27 11 6 9 14
13 18 9 9 -9 -3 -45 -22 -64 -12 -11 -14 -21 -7 -31 16 -25 28 -20 34 12 4 18
12 29 19 27 10 -2 12 4 7 22 -3 14 -2 27 3 30 5 3 7 15 4 26 -3 11 -1 20 3 20
14 0 10 143 -4 148 -7 2 -12 12 -12 23 0 14 -7 19 -25 19 -14 0 -25 5 -25 10
0 6 -8 9 -17 8 -10 -1 -36 -3 -57 -5z m-41 -72 c-3 -6 9 -7 30 -4 25 4 35 2
35 -7 0 -7 7 -18 16 -24 14 -11 14 -13 0 -25 -13 -11 -17 -9 -27 13 -9 19 -15
23 -25 15 -10 -8 -18 -5 -31 10 -9 12 -24 21 -33 21 -13 0 -13 -1 0 -10 12 -8
9 -10 -12 -10 -29 0 -38 14 -15 23 22 9 68 7 62 -2z m153 -40 c-2 -29 -7 -36
-24 -37 -12 -1 -26 -4 -32 -8 -6 -4 -4 10 4 31 21 50 21 50 39 50 12 0 15 -9
13 -36z m-76 -66 c3 -13 1 -22 -3 -19 -9 5 -13 44 -5 44 2 0 6 -11 8 -25z
m-34 -22 c2 -8 -6 -13 -22 -13 -17 0 -26 5 -26 16 0 19 41 16 48 -3z m102 -9
c0 -8 -4 -12 -10 -9 -5 3 -10 10 -10 16 0 5 5 9 10 9 6 0 10 -7 10 -16z m-97
-81 c20 -23 25 -55 10 -60 -8 -3 -13 4 -13 16 0 12 -7 24 -15 27 -16 6 -21 34
-7 34 5 0 16 -8 25 -17z m9 -196 c-2 -9 2 -27 9 -39 10 -18 8 -24 -6 -34 -27
-20 -35 -8 -35 47 0 43 3 50 18 47 10 -2 16 -11 14 -21z m-57 -12 c0 -13 -6
-30 -12 -37 -10 -9 -13 -6 -13 19 0 17 6 34 13 36 6 3 12 6 12 6 1 1 1 -10 0
-24z m112 -47 c-3 -8 -6 -5 -6 6 -1 11 2 17 5 13 3 -3 4 -12 1 -19z m-24 -68
c-6 -23 -4 -23 -38 -10 -32 12 -24 30 15 30 23 0 27 -3 23 -20z m-103 -300 c0
-5 -2 -10 -4 -10 -3 0 -8 5 -11 10 -3 6 -1 10 4 10 6 0 11 -4 11 -10z m74
-560 c-6 -37 -5 -40 16 -40 22 0 23 -2 16 -77 -4 -43 -9 -79 -11 -82 -8 -7
-33 20 -45 49 -7 17 -17 30 -22 30 -7 0 -7 -5 0 -13 14 -16 2 -33 -23 -32 -13
0 -21 8 -23 23 -2 12 1 22 7 22 6 0 11 11 11 25 0 14 6 34 12 45 10 15 10 22
0 32 -11 11 -16 9 -28 -6 -12 -18 -14 -18 -14 -3 0 19 45 41 68 32 8 -3 16 3
19 15 10 37 23 21 17 -20z m46 -10 c0 -5 -4 -10 -10 -10 -5 0 -10 5 -10 10 0
6 5 10 10 10 6 0 10 -4 10 -10z m-163 -146 c2 -6 -5 -21 -15 -33 l-18 -23 -2
37 c-2 30 0 36 14 33 10 -2 19 -8 21 -14z m28 -64 c5 -17 -9 -60 -20 -60 -3 0
-5 18 -5 40 0 42 14 54 25 20z m80 -19 c-3 -6 -11 -11 -17 -11 -6 0 -6 6 2 15
14 17 26 13 15 -4z m-45 -31 c0 -5 -2 -10 -4 -10 -2 0 -12 -3 -22 -7 -16 -6
-17 -5 -4 10 17 19 30 22 30 7z m-100 -25 c-7 -9 -15 -13 -19 -10 -3 3 1 10 9
15 21 14 24 12 10 -5z m-2165 -33 c-3 -3 -11 0 -18 7 -9 10 -8 11 6 5 10 -3
15 -9 12 -12z m95 -18 c0 -8 -9 -14 -20 -14 -11 0 -20 -4 -20 -10 0 -5 -7 -10
-15 -10 -8 0 -15 9 -15 21 0 11 -4 17 -10 14 -5 -3 -7 0 -5 7 7 19 85 11 85
-8z m2524 20 c25 -9 19 -34 -7 -34 -30 0 -40 10 -26 27 13 15 12 15 33 7z
m-2630 -24 c15 -15 -2 -38 -31 -42 -31 -3 -44 -35 -22 -49 11 -6 11 -11 1 -21
-6 -6 -12 -22 -12 -35 0 -14 -6 -23 -15 -23 -11 0 -15 13 -15 54 0 30 4 57 9
60 4 3 7 18 5 33 -1 15 0 31 3 36 6 9 63 -1 77 -13z m2296 10 c0 -5 -4 -10
-10 -10 -5 0 -10 5 -10 10 0 6 5 10 10 10 6 0 10 -4 10 -10z m-2136 -30 c31
-12 36 -50 7 -50 -11 0 -26 -3 -35 -6 -12 -5 -16 1 -16 23 0 26 7 43 16 43 1
0 14 -4 28 -10z m2355 -4 c10 -12 7 -18 -18 -30 -37 -20 -41 -20 -41 -1 0 8 7
15 15 15 9 0 18 7 21 15 7 18 9 19 23 1z m-1930 -27 c13 -37 7 -49 -23 -49
-12 0 -33 -11 -46 -25 -29 -31 -40 -31 -63 0 -22 31 -14 47 18 39 21 -5 27 0
42 30 22 47 56 50 72 5z m1767 17 c8 -20 -25 -66 -47 -66 -12 0 -19 -7 -19
-19 0 -28 -41 -35 -65 -11 -23 24 -10 44 26 38 21 -3 22 -4 6 -20 -16 -16 -16
-17 1 -15 12 1 18 8 16 21 -1 12 -3 24 -3 29 -1 4 -8 7 -16 7 -18 0 -20 37 -3
42 35 12 99 8 104 -6z m-2086 -5 c0 -5 -11 -8 -25 -8 -14 0 -25 2 -25 6 0 4
11 8 25 9 14 1 25 -2 25 -7z m2145 -1 c3 -5 1 -10 -4 -10 -6 0 -11 5 -11 10 0
6 2 10 4 10 3 0 8 -4 11 -10z m-1627 -45 c3 -29 1 -31 -50 -43 -30 -6 -65 -12
-80 -12 -14 0 -31 -7 -38 -15 -16 -19 -35 -19 -55 1 -18 19 -5 44 24 44 9 0
21 10 26 23 11 23 17 24 73 12 26 -6 32 -4 32 9 0 13 7 17 33 14 27 -3 32 -7
35 -33z m195 28 c-7 -2 -19 -2 -25 0 -7 3 -2 5 12 5 14 0 19 -2 13 -5z m-686
-19 c3 -9 16 -26 28 -38 l22 -22 18 25 c17 22 19 23 31 6 16 -22 7 -45 -17
-45 -10 0 -18 -5 -16 -11 1 -6 -5 -15 -13 -21 -22 -14 -70 7 -70 31 0 11 -8
25 -19 30 -21 12 -34 38 -25 52 9 15 54 10 61 -7z m646 0 c9 -3 17 -11 17 -19
0 -16 -51 -26 -67 -13 -13 10 -18 -1 -14 -26 1 -5 -5 -3 -14 4 -13 11 -13 15
-3 21 10 7 10 9 1 9 -14 0 -13 21 1 32 9 6 43 3 79 -8z m1234 -28 c-4 -9 -14
-12 -26 -9 -24 6 -25 8 -11 34 10 18 12 18 26 4 9 -9 14 -22 11 -29z m-1100 7
c6 -17 -41 -45 -61 -37 -19 7 -22 50 -3 57 18 6 60 -7 64 -20z m343 8 c0 -6
-4 -13 -10 -16 -5 -3 -10 1 -10 9 0 9 5 16 10 16 6 0 10 -4 10 -9z m-1416 -7
c9 -3 16 -17 16 -30 0 -26 -1 -25 87 -28 45 -1 53 2 53 17 0 26 29 33 51 11
16 -16 17 -23 6 -44 -7 -14 -21 -26 -32 -28 -36 -7 -47 -23 -28 -37 21 -16 16
-24 -18 -27 -22 -3 -24 0 -21 35 3 36 2 37 -30 37 -32 0 -32 0 -10 -16 12 -8
22 -26 22 -40 0 -20 -5 -24 -30 -24 -32 0 -77 -17 -98 -37 -17 -16 -29 -16
-38 -1 -4 6 4 20 19 33 22 17 27 29 27 64 0 29 -6 48 -16 56 -15 11 -15 14 1
38 19 30 18 29 39 21z m1461 -24 c-5 -8 -11 -8 -17 -2 -6 6 -7 16 -3 22 5 8
11 8 17 2 6 -6 7 -16 3 -22z m489 11 c3 -4 0 -15 -7 -23 -13 -17 -87 -14 -87
4 0 5 5 6 10 3 6 -3 10 -2 10 4 0 16 65 28 74 12z m-714 -13 c0 -4 -9 -8 -20
-8 -11 0 -20 4 -20 9 0 6 9 9 20 8 11 -1 20 -5 20 -9z m1340 -4 c0 -6 -7 -17
-16 -24 -13 -11 -16 -10 -21 9 -3 13 -11 20 -19 17 -8 -3 -14 -1 -14 4 0 6 16
9 35 7 19 -1 35 -7 35 -13z m-868 -6 c13 -11 17 -42 20 -178 3 -165 3 -165
-20 -168 -12 -2 -24 3 -27 10 -2 7 -11 82 -19 167 -15 145 -15 155 2 167 21
17 25 17 44 2z m688 -23 c20 -24 6 -28 -15 -5 -10 11 -13 20 -8 20 6 0 16 -7
23 -15z m-1900 -62 c0 -13 -4 -23 -10 -23 -5 0 -10 4 -10 9 0 5 -9 11 -20 14
-31 8 -24 26 10 24 24 -2 30 -7 30 -24z m-572 -31 c-5 -41 -28 -39 -28 2 0 28
3 34 16 29 9 -3 14 -15 12 -31z m462 -22 c0 -25 -4 -30 -25 -30 -21 0 -25 5
-25 30 0 25 4 30 25 30 21 0 25 -5 25 -30z m203 -17 c-4 -11 -3 -14 5 -9 7 4
12 2 12 -3 0 -6 -4 -11 -9 -11 -14 0 -23 18 -16 30 10 16 15 12 8 -7z m-365
-51 c2 -7 -7 -12 -22 -12 -24 0 -41 12 -31 22 9 9 49 1 53 -10z m179 -54 c-8
-5 -5 -12 11 -23 21 -15 31 -45 14 -45 -11 0 -55 30 -69 48 -18 22 -16 32 6
32 11 0 23 5 27 11 4 8 9 7 15 -2 5 -8 3 -17 -4 -21z m513 2 c0 -5 -7 -10 -15
-10 -8 0 -15 5 -15 10 0 6 7 10 15 10 8 0 15 -4 15 -10z m60 -50 c0 -5 -7 -10
-16 -10 -8 0 -12 5 -9 10 3 6 10 10 16 10 5 0 9 -4 9 -10z m-1005 -20 c-3 -5
-1 -10 5 -10 6 0 8 -5 4 -11 -4 -7 -10 -7 -16 -1 -9 9 -3 32 8 32 3 0 2 -4 -1
-10z m590 -59 c3 -5 1 -12 -5 -16 -5 -3 -10 1 -10 9 0 18 6 21 15 7z m1175 -1
c0 -5 -7 -10 -15 -10 -8 0 -15 5 -15 10 0 6 7 10 15 10 8 0 15 -4 15 -10z
m-1270 -10 c0 -5 -4 -10 -9 -10 -6 0 -13 5 -16 10 -3 6 1 10 9 10 9 0 16 -4
16 -10z m2025 -20 c0 -9 -11 -16 -28 -18 -26 -3 -28 -2 -17 18 13 23 45 23 45
0z m-1955 0 c0 -5 -9 -10 -20 -10 -11 0 -20 5 -20 10 0 6 9 10 20 10 11 0 20
-4 20 -10z m-720 -16 c0 -9 -7 -14 -17 -12 -25 5 -28 28 -4 28 12 0 21 -6 21
-16z m1460 7 c0 -5 12 -11 28 -13 16 -2 27 -9 27 -19 0 -8 17 -33 38 -55 20
-21 37 -42 37 -46 0 -15 -71 -8 -76 7 -4 8 -14 15 -23 15 -10 0 -26 6 -36 14
-16 12 -17 16 -6 30 11 14 11 16 -3 16 -11 0 -16 9 -16 30 0 20 5 30 15 30 8
0 15 -4 15 -9z m873 -9 c29 -13 36 -32 11 -32 -24 0 -12 -34 13 -38 16 -2 23
-12 28 -44 4 -23 3 -44 -3 -50 -11 -11 -52 -2 -52 11 0 5 -22 6 -50 3 l-50 -5
0 32 c0 19 6 34 15 37 22 9 18 24 -5 24 -11 0 -20 7 -20 15 0 10 10 15 28 15
15 0 34 5 42 10 10 7 -12 10 -72 10 -58 0 -88 4 -88 11 0 6 6 9 13 6 6 -2 20
-1 30 2 29 10 130 6 160 -7z m604 -8 c3 -8 0 -21 -7 -27 -9 -8 -11 -9 -7 -1 4
7 0 15 -9 18 -8 3 -12 10 -9 16 9 15 25 12 32 -6z m-2209 -20 c9 -5 -13 -34
-27 -34 -13 1 -13 3 4 16 20 16 20 16 -2 9 -16 -4 -23 -2 -23 8 0 22 12 28 29
15 9 -7 17 -13 19 -14z m-705 0 c9 -9 -4 -34 -18 -34 -14 0 -27 25 -18 34 4 3
12 6 18 6 6 0 14 -3 18 -6z m1957 -44 c0 -5 -7 -10 -16 -10 -8 0 -12 5 -9 10
3 6 10 10 16 10 5 0 9 -4 9 -10z m57 -12 c-3 -8 -6 -5 -6 6 -1 11 2 17 5 13 3
-3 4 -12 1 -19z m-103 -9 c-8 -14 -24 -10 -24 6 0 9 6 12 15 9 8 -4 12 -10 9
-15z m-538 -12 c1 -9 -4 -17 -12 -17 -8 0 -14 9 -14 21 0 24 22 21 26 -4z
m-626 -22 c0 -8 -9 -15 -20 -15 -11 0 -20 7 -20 15 0 8 9 15 20 15 11 0 20 -7
20 -15z m508 -2 c-5 -25 -28 -28 -28 -4 0 12 6 21 16 21 9 0 14 -7 12 -17z
m55 -9 c8 -8 -3 -34 -14 -34 -5 0 -9 9 -9 20 0 19 11 26 23 14z m357 -34 c0
-5 -4 -10 -10 -10 -5 0 -10 5 -10 10 0 6 5 10 10 10 6 0 10 -4 10 -10z m350
-25 c0 -5 -7 -2 -16 7 -14 14 -18 13 -40 -9 -26 -26 -45 -27 -52 -2 -3 11 -2
11 7 -1 9 -13 11 -13 11 1 0 21 50 38 73 25 9 -6 17 -15 17 -21z m270 -6 c0
-10 -7 -19 -15 -19 -9 0 -15 9 -15 25 0 18 4 23 15 19 8 -4 15 -15 15 -25z
m459 -20 c-5 -11 -21 -19 -34 -19 -20 0 -25 5 -25 26 0 14 4 23 10 19 6 -3 10
-2 10 4 0 7 8 7 25 -1 20 -9 22 -14 14 -29z m-511 19 c-6 -18 -28 -21 -28 -4
0 9 7 16 16 16 9 0 14 -5 12 -12z"/>
<path d="M3252 1085 c0 -16 2 -22 5 -12 2 9 2 23 0 30 -3 6 -5 -1 -5 -18z"/>
<path d="M2945 2620 c4 -6 11 -8 16 -5 14 9 11 15 -7 15 -8 0 -12 -5 -9 -10z"/>
<path d="M2920 2529 c0 -27 2 -29 15 -15 8 8 15 22 15 30 0 9 -7 16 -15 16
-10 0 -15 -10 -15 -31z"/>
<path d="M3425 2550 c-3 -5 -1 -10 4 -10 6 0 11 5 11 10 0 6 -2 10 -4 10 -3 0
-8 -4 -11 -10z"/>
<path d="M3417 2493 c-4 -3 -7 -11 -7 -17 0 -6 5 -5 12 2 6 6 9 14 7 17 -3 3
-9 2 -12 -2z"/>
<path d="M3411 2440 c0 -15 -6 -31 -12 -37 -8 -8 -8 -19 0 -40 10 -27 10 -27
9 -3 0 14 2 33 6 42 4 9 6 27 3 40 -4 22 -4 22 -6 -2z"/>
<path d="M3401 2314 c0 -11 3 -14 6 -6 3 7 2 16 -1 19 -3 4 -6 -2 -5 -13z"/>
<path d="M3381 2144 c0 -11 3 -14 6 -6 3 7 2 16 -1 19 -3 4 -6 -2 -5 -13z"/>
<path d="M3371 2064 c0 -11 3 -14 6 -6 3 7 2 16 -1 19 -3 4 -6 -2 -5 -13z"/>
<path d="M3345 1910 c-3 -5 -1 -10 4 -10 6 0 11 5 11 10 0 6 -2 10 -4 10 -3 0
-8 -4 -11 -10z"/>
<path d="M869 1873 c-13 -16 -12 -17 4 -4 9 7 17 15 17 17 0 8 -8 3 -21 -13z"/>
<path d="M3342 1860 c0 -14 2 -19 5 -12 2 6 2 18 0 25 -3 6 -5 1 -5 -13z"/>
<path d="M2369 1794 c-22 -25 -62 -97 -50 -90 5 4 12 -8 16 -25 4 -18 3 -34
-3 -38 -5 -3 -12 -31 -15 -61 -3 -30 -6 -64 -8 -75 -3 -13 4 -23 19 -30 12 -5
22 -17 22 -27 0 -15 -10 -16 -102 -11 -62 3 -113 1 -128 -5 -20 -9 -8 -11 65
-13 50 -1 131 -3 181 -5 50 -1 97 2 103 6 8 4 20 75 32 180 23 200 24 198 -62
207 -45 4 -57 2 -70 -13z m101 -24 c0 -5 -13 -21 -29 -37 -26 -27 -27 -31 -12
-42 14 -10 13 -11 -6 -7 -19 3 -23 0 -23 -22 0 -19 3 -23 9 -14 5 9 8 -6 9
-40 0 -40 -2 -47 -8 -28 -6 19 -8 21 -9 6 -1 -11 -3 -17 -6 -14 -3 3 -7 43 -8
89 -3 72 -1 86 16 101 10 9 16 21 13 27 -5 7 4 7 24 0 16 -6 30 -15 30 -19z
m4 -137 c-7 -89 -16 -123 -35 -123 -6 0 -5 8 2 21 6 12 8 36 4 55 -3 19 -2 34
3 34 5 0 7 11 4 25 -5 31 5 75 18 75 6 0 8 -32 4 -87z m-72 -125 c-9 -9 -12
-4 -11 23 0 32 1 33 11 11 8 -17 8 -26 0 -34z m-11 -33 c5 4 9 1 9 -5 0 -17
-25 -6 -26 11 -1 9 1 10 3 1 3 -7 9 -10 14 -7z"/>
<path d="M2397 1733 c-4 -3 -7 -11 -7 -17 0 -6 5 -5 12 2 6 6 9 14 7 17 -3 3
-9 2 -12 -2z"/>
<path d="M3331 1784 c0 -11 3 -14 6 -6 3 7 2 16 -1 19 -3 4 -6 -2 -5 -13z"/>
<path d="M3317 1690 c3 -11 7 -20 9 -20 2 0 4 9 4 20 0 11 -4 20 -9 20 -5 0
-7 -9 -4 -20z"/>
<path d="M3313 1625 c0 -22 2 -30 4 -17 2 12 2 30 0 40 -3 9 -5 -1 -4 -23z"/>
<path d="M3246 1616 c3 -7 0 -25 -6 -41 -8 -22 -8 -30 2 -37 28 -17 37 -9 26
22 -7 22 -7 34 1 44 9 11 7 15 -8 19 -13 3 -18 0 -15 -7z"/>
<path d="M3313 1475 c0 -33 2 -45 4 -27 2 18 2 45 0 60 -2 15 -4 0 -4 -33z"/>
<path d="M1748 1443 c6 -2 18 -2 25 0 6 3 1 5 -13 5 -14 0 -19 -2 -12 -5z"/>
<path d="M1893 1433 c32 -2 81 -2 110 0 29 2 3 3 -58 3 -60 0 -84 -1 -52 -3z"/>
<path d="M3295 1310 c0 -28 3 -50 7 -50 5 0 8 23 8 50 0 28 -3 50 -7 50 -5 0
-8 -23 -8 -50z"/>
<path d="M482 1210 c-11 -19 -24 -20 -210 -22 l-197 -2 195 -6 c107 -3 180 -7
163 -8 -18 -1 -33 -6 -33 -11 0 -5 -20 -11 -44 -12 -36 -3 -42 -1 -33 9 8 11
1 13 -39 10 -40 -2 -49 -7 -51 -23 -2 -11 0 -14 3 -7 5 10 12 9 32 -4 15 -10
39 -17 55 -16 15 1 27 -2 27 -8 0 -20 53 -60 79 -60 15 0 32 -5 38 -11 7 -7
12 -3 15 15 7 34 -10 59 -18 29 -7 -27 -13 -28 -40 -9 -22 17 -13 30 26 39 40
10 51 -5 60 -79 l9 -69 -4 79 c-3 43 -5 103 -5 133 0 56 -7 65 -28 33z m16
-65 c0 -13 -4 -22 -9 -20 -9 6 -8 45 2 45 4 0 7 -11 7 -25z m-98 -35 c0 -5 -7
-10 -16 -10 -8 0 -12 5 -9 10 3 6 10 10 16 10 5 0 9 -4 9 -10z"/>
<path d="M0 1160 c0 -6 26 -10 59 -10 33 0 63 5 66 10 4 6 -18 10 -59 10 -37
0 -66 -4 -66 -10z"/>
<path d="M140 1160 c0 -5 16 -10 35 -10 19 0 35 5 35 10 0 6 -16 10 -35 10
-19 0 -35 -4 -35 -10z"/>
<path d="M40 955 c-24 -14 -24 -14 -4 -15 12 0 24 7 28 15 6 18 7 18 -24 0z"/>
<path d="M406 952 c-3 -3 -6 -16 -6 -29 0 -27 -24 -31 -39 -5 -8 14 -11 14
-12 2 -1 -8 0 -21 1 -29 1 -9 -5 -12 -19 -8 -14 3 -19 1 -14 -6 4 -6 0 -8 -10
-4 -10 3 -17 3 -17 -1 0 -17 -51 -29 -105 -24 -42 3 -60 1 -66 -9 -7 -12 -16
-10 -49 9 -22 12 -40 18 -40 13 0 -5 9 -13 20 -16 28 -9 26 -37 -3 -33 -18 2
-22 9 -22 41 0 23 -5 37 -12 37 -10 0 -13 -53 -13 -230 0 -219 1 -230 20 -240
11 -6 20 -16 20 -22 0 -6 8 -16 17 -23 15 -11 15 -17 5 -39 -7 -15 -12 -42
-12 -61 0 -28 -4 -35 -19 -35 -11 0 -23 -4 -26 -10 -4 -6 4 -9 17 -7 17 1 24
-4 26 -21 2 -15 10 -22 24 -22 20 0 20 1 3 20 -18 19 -15 50 5 50 6 0 13 -6
16 -14 9 -24 30 -26 30 -2 -1 18 4 21 36 20 55 -2 69 -17 61 -70 -5 -39 -3
-44 13 -44 13 0 25 13 37 40 19 44 37 53 36 18 0 -22 -1 -22 -9 -3 -15 35 -11
3 7 -52 10 -29 21 -53 26 -53 9 0 -2 50 -14 66 -5 6 -4 27 2 47 5 21 7 42 4
47 -8 13 -45 13 -45 0 0 -5 -9 -10 -20 -10 -25 0 -26 18 -2 27 17 7 32 22 32
36 0 4 -13 7 -30 7 -26 0 -30 -4 -30 -26 0 -22 -3 -25 -22 -20 -13 3 -26 6
-30 6 -5 0 -8 7 -8 15 0 8 -4 15 -10 15 -5 0 -10 -4 -10 -10 0 -5 -10 -10 -22
-10 -20 0 -21 1 -6 16 13 13 14 23 6 51 -8 29 -6 43 11 77 11 23 22 56 23 75
4 41 28 56 28 17 0 -24 3 -26 28 -20 15 4 31 13 35 21 9 15 37 18 37 3 0 -5 5
-10 11 -10 6 0 8 9 4 20 -10 31 8 23 28 -12 17 -30 17 -33 2 -44 -9 -7 -23
-10 -30 -8 -10 4 -12 -1 -8 -15 4 -17 1 -21 -17 -21 -19 0 -21 4 -16 26 6 22
4 25 -9 20 -9 -3 -19 -6 -21 -6 -2 0 -4 -6 -4 -13 0 -8 -11 -19 -25 -25 -16
-8 -25 -19 -24 -34 0 -13 3 -17 6 -10 7 18 30 14 53 -10 l20 -22 0 26 c0 27
20 38 74 38 21 0 27 -4 22 -15 -3 -8 -1 -15 4 -15 6 0 10 5 10 10 0 6 6 10 14
10 16 0 28 49 20 89 -5 25 -2 31 27 45 17 9 52 16 76 16 39 0 43 -2 43 -24 0
-14 -5 -28 -10 -31 -7 -4 -7 -13 0 -25 7 -14 7 -25 -2 -39 -7 -11 -9 -24 -4
-28 4 -4 12 0 17 10 12 21 23 22 43 1 22 -22 20 -31 -9 -38 -25 -6 -33 -20
-16 -30 5 -3 14 1 21 9 14 17 40 20 40 5 0 -6 8 -5 20 2 25 16 26 28 1 28 -10
0 -25 7 -32 16 -11 14 -10 19 11 34 27 20 22 50 -10 50 -23 0 -27 18 -5 26 18
7 20 31 3 36 -7 3 -8 9 -3 19 5 8 8 24 6 37 -2 17 2 22 22 22 22 0 24 -4 25
-46 0 -25 5 -51 11 -57 6 -6 11 -18 11 -27 0 -14 42 -60 54 -60 2 0 6 9 9 20
3 13 0 20 -8 20 -8 0 -16 3 -18 8 -3 4 -13 84 -22 177 -10 94 -21 171 -26 173
-4 2 -7 9 -5 15 1 7 1 9 -1 4 -3 -4 -9 -5 -14 -1 -15 9 -10 -8 8 -28 13 -15
13 -18 2 -18 -8 0 -22 -9 -32 -20 -20 -24 -30 -25 -48 -4 -12 14 -10 19 13 38
22 17 24 23 13 34 -19 16 -28 15 -21 -3 7 -20 -32 -41 -48 -25 -8 9 -7 11 4
10 8 -1 22 -1 30 0 8 2 -7 6 -35 10 -51 7 -85 -7 -85 -35 0 -7 -6 -18 -14 -24
-11 -9 -12 -6 -8 14 4 25 3 25 -37 19 -36 -6 -41 -4 -40 12 0 11 3 14 6 7 2
-7 12 -13 20 -13 9 0 13 6 10 14 -4 9 3 16 19 20 27 7 32 24 9 32 -8 4 -15 13
-15 21 0 12 9 14 45 9 35 -6 44 -4 40 6 -5 13 -78 21 -89 10z m111 -108 c-3
-3 -12 -4 -19 -1 -8 3 -5 6 6 6 11 1 17 -2 13 -5z m-330 -20 c4 -12 -35 -26
-48 -18 -5 2 -6 11 -2 20 6 17 44 15 50 -2z m113 2 c0 -13 -69 -56 -90 -56
-21 0 -9 30 15 36 13 3 29 12 36 20 15 18 39 18 39 0z m230 -11 c0 -8 -4 -15
-10 -15 -5 0 -10 7 -10 15 0 8 5 15 10 15 6 0 10 -7 10 -15z m-140 -25 c0 -5
-4 -10 -10 -10 -5 0 -10 5 -10 10 0 6 5 10 10 10 6 0 10 -4 10 -10z m-265 -20
c18 -20 17 -20 -38 -20 -43 0 -57 4 -57 14 0 29 70 33 95 6z m394 -6 c2 -2 4
-20 3 -39 l-1 -34 61 2 c73 2 84 -12 33 -42 -38 -22 -55 -20 -55 5 0 12 -7 14
-29 9 -28 -6 -30 -4 -33 27 -2 27 -8 34 -35 42 -30 8 -41 24 -27 39 6 5 75 -2
83 -9z m139 -27 c2 -12 -3 -17 -17 -17 -12 0 -21 6 -21 13 0 31 32 34 38 4z
m-463 -12 c-38 -31 -45 -31 -45 0 0 22 4 25 38 25 l37 -1 -30 -24z m237 -14
c30 -6 33 -10 33 -41 0 -28 4 -34 18 -32 10 2 17 -3 17 -13 0 -8 -8 -15 -17
-16 -11 0 -13 -3 -5 -6 20 -8 14 -33 -8 -33 -16 0 -20 7 -20 30 0 39 -36 43
-46 5 -7 -29 -19 -32 -33 -7 -9 15 -12 15 -20 2 -14 -21 -30 -2 -38 43 -5 33
-4 36 23 39 25 3 29 8 32 38 3 32 5 33 17 16 8 -10 29 -21 47 -25z m-254 -69
c4 -39 -15 -42 -28 -6 -14 36 -13 43 8 40 11 -2 18 -13 20 -34z m520 -4 l1
-31 -15 28 c-18 34 -18 46 -1 39 8 -3 14 -19 15 -36z m-450 -49 c-2 -6 -8 -10
-13 -10 -5 0 -11 4 -13 10 -2 6 4 11 13 11 9 0 15 -5 13 -11z m-102 -80 c8
-14 -5 -26 -38 -34 -22 -6 -28 -4 -28 9 0 9 10 21 23 26 30 12 35 12 43 -1z
m-58 -102 c2 -12 -1 -15 -12 -11 -19 7 -22 38 -3 32 6 -3 13 -12 15 -21z"/>
<path d="M517 938 c-4 -12 -4 -24 -2 -27 3 -2 5 1 5 7 0 7 5 12 11 12 6 0 9
-6 6 -14 -4 -10 0 -12 14 -9 10 3 19 1 19 -4 0 -5 10 -9 23 -7 12 1 25 3 30 3
4 1 7 5 7 11 0 5 -13 7 -29 4 -24 -5 -32 -1 -46 20 -21 32 -31 33 -38 4z"/>
<path d="M225 940 c-3 -5 -1 -10 4 -10 6 0 11 5 11 10 0 6 -2 10 -4 10 -3 0
-8 -4 -11 -10z"/>
<path d="M226 903 c-6 -14 -5 -15 5 -6 7 7 10 15 7 18 -3 3 -9 -2 -12 -12z"/>
<path d="M286 905 c-3 -8 -1 -15 4 -15 6 0 10 7 10 15 0 8 -2 15 -4 15 -2 0
-6 -7 -10 -15z"/>
<path d="M485 911 c3 -5 1 -12 -5 -16 -5 -3 -10 -14 -10 -23 1 -15 2 -15 15 2
17 23 20 46 4 46 -5 0 -8 -4 -4 -9z"/>
<path d="M1140 860 c0 -5 5 -10 11 -10 5 0 7 5 4 10 -3 6 -8 10 -11 10 -2 0
-4 -4 -4 -10z"/>
<path d="M1230 839 c0 -5 5 -7 10 -4 6 3 10 8 10 11 0 2 -4 4 -10 4 -5 0 -10
-5 -10 -11z"/>
<path d="M3691 784 c0 -11 3 -14 6 -6 3 7 2 16 -1 19 -3 4 -6 -2 -5 -13z"/>
<path d="M3680 751 c0 -6 5 -13 10 -16 6 -3 10 1 10 9 0 9 -4 16 -10 16 -5 0
-10 -4 -10 -9z"/>
<path d="M452 429 c1 -12 9 -24 16 -27 9 -3 13 3 10 19 -1 12 -9 24 -16 27 -9
3 -13 -3 -10 -19z"/>
<path d="M416 362 c-4 -7 -15 -12 -25 -12 -11 0 -29 -9 -42 -19 -19 -16 -22
-22 -11 -32 6 -7 12 -22 13 -33 0 -20 1 -20 9 2 9 22 17 25 78 24 35 0 40 9
16 29 -9 7 -19 22 -23 33 -5 13 -10 16 -15 8z"/>
<path d="M190 343 c0 -13 5 -23 10 -23 13 0 13 11 0 30 -8 12 -10 11 -10 -7z"/>
<path d="M508 335 c-8 -8 2 -45 13 -45 5 0 9 5 9 11 0 8 15 9 45 5 27 -4 45
-3 45 2 0 6 -15 12 -32 15 -18 3 -42 8 -53 12 -11 3 -23 3 -27 0z"/>
<path d="M1190 320 c0 -5 5 -10 11 -10 5 0 7 5 4 10 -3 6 -8 10 -11 10 -2 0
-4 -4 -4 -10z"/>
<path d="M1261 301 c-7 -5 -12 -13 -10 -18 2 -5 12 -1 22 9 18 19 12 24 -12 9z"/>
<path d="M1140 280 c0 -5 5 -10 11 -10 5 0 7 5 4 10 -3 6 -8 10 -11 10 -2 0
-4 -4 -4 -10z"/>
<path d="M2328 283 c6 -2 18 -2 25 0 6 3 1 5 -13 5 -14 0 -19 -2 -12 -5z"/>
<path d="M940 265 c0 -8 -7 -15 -17 -15 -14 0 -14 -2 3 -21 17 -19 19 -19 25
-2 11 27 10 53 -1 53 -5 0 -10 -7 -10 -15z"/>
<path d="M1741 264 c0 -11 3 -14 6 -6 3 7 2 16 -1 19 -3 4 -6 -2 -5 -13z"/>
<path d="M525 244 c-17 -13 -16 -14 18 -14 26 0 41 -6 49 -20 7 -11 20 -20 30
-20 9 0 19 -6 21 -12 4 -10 6 -10 6 0 1 7 -10 18 -24 24 -14 6 -25 17 -25 24
0 21 -53 34 -75 18z"/>
<path d="M2060 244 c0 -8 6 -11 15 -8 8 4 15 1 15 -6 0 -6 5 -8 11 -4 8 4 8 9
0 17 -16 16 -41 17 -41 1z"/>
<path d="M1790 240 c0 -5 5 -10 10 -10 6 0 10 5 10 10 0 6 -4 10 -10 10 -5 0
-10 -4 -10 -10z"/>
<path d="M437 223 c-15 -16 -19 -16 -27 -3 -8 12 -10 9 -10 -12 0 -32 5 -34
26 -14 7 8 19 16 25 18 7 2 10 10 8 16 -3 9 -9 7 -22 -5z"/>
<path d="M1135 220 c-15 -16 -14 -18 2 -22 10 -3 22 -5 27 -6 5 0 13 -6 18
-14 7 -10 10 -10 19 5 5 9 19 17 29 17 18 0 37 17 28 25 -2 2 -27 6 -55 9 -41
3 -55 1 -68 -14z"/>
<path d="M1323 223 c-22 -8 -14 -23 12 -23 16 0 25 6 25 15 0 15 -14 18 -37 8z"/>
<path d="M848 203 c7 -3 16 -2 19 1 4 3 -2 6 -13 5 -11 0 -14 -3 -6 -6z"/>
<path d="M1806 201 c-4 -6 -4 -22 0 -36 5 -21 9 -23 21 -14 16 14 14 51 -4 56
-6 2 -14 0 -17 -6z"/>
<path d="M1280 175 c-7 -9 -11 -18 -8 -20 3 -3 11 1 18 10 7 9 11 18 8 20 -3
3 -11 -1 -18 -10z"/>
<path d="M1556 168 c3 -13 11 -24 15 -26 5 -2 9 -11 9 -21 0 -9 5 -22 11 -28
16 -16 3 -43 -21 -43 -11 0 -20 -7 -20 -15 0 -8 -4 -15 -10 -15 -5 0 -10 -4
-10 -10 0 -14 33 -13 48 2 9 9 12 9 12 0 0 -7 14 -12 33 -12 l32 0 -24 19
c-31 24 -19 44 20 36 22 -5 31 -2 35 10 7 18 -21 44 -49 45 -15 0 -18 6 -13
33 3 17 3 26 0 20 -9 -20 -41 -15 -47 7 -3 11 -10 20 -17 20 -7 0 -9 -8 -4
-22z"/>
<path d="M1677 184 c-11 -11 16 -54 35 -54 21 0 22 1 6 35 -11 24 -28 32 -41
19z"/>
<path d="M1875 169 c-10 -30 11 -48 31 -27 15 15 15 18 1 32 -20 21 -24 20
-32 -5z"/>
<path d="M553 163 c-7 -3 -13 -16 -13 -29 0 -27 16 -30 45 -9 17 14 20 13 32
-7 11 -21 12 -22 12 -3 1 11 -3 25 -7 31 -8 13 -52 24 -69 17z"/>
<path d="M897 143 c5 -13 35 -33 49 -33 5 0 3 5 -3 11 -6 6 -9 18 -6 25 4 10
-2 13 -20 12 -16 -1 -23 -7 -20 -15z"/>
<path d="M1282 110 c-18 -29 -15 -38 4 -12 9 13 14 25 12 27 -2 2 -9 -5 -16
-15z"/>
<path d="M1368 123 c7 -3 16 -2 19 1 4 3 -2 6 -13 5 -11 0 -14 -3 -6 -6z"/>
<path d="M44 94 c-7 -29 7 -49 29 -41 9 3 13 14 10 31 -7 35 -31 41 -39 10z"/>
<path d="M1320 86 c6 -17 5 -26 -3 -30 -9 -3 -9 -5 0 -5 6 -1 14 3 17 7 7 12
-4 52 -15 52 -5 0 -4 -11 1 -24z"/>
<path d="M128 66 c-3 -15 -1 -23 6 -20 12 5 16 44 5 44 -4 0 -9 -11 -11 -24z"/>
<path d="M234 43 l-42 -43 34 0 c28 0 34 4 34 21 0 11 5 29 11 41 17 32 7 27
-37 -19z"/>
<path d="M1850 80 c-25 -4 -50 -5 -56 -3 -7 2 -11 -6 -11 -20 0 -19 4 -23 19
-19 14 3 21 -2 25 -18 l6 -24 8 22 c9 24 39 20 39 -5 0 -10 9 -13 32 -11 24 2
34 9 41 31 7 23 6 31 -9 42 -21 16 -27 16 -94 5z"/>
<path d="M941 64 c0 -11 3 -14 6 -6 3 7 2 16 -1 19 -3 4 -6 -2 -5 -13z"/>
<path d="M621 44 c0 -11 3 -14 6 -6 3 7 2 16 -1 19 -3 4 -6 -2 -5 -13z"/>
<path d="M1031 44 c-1 -26 -47 -39 -71 -21 -13 10 -13 10 -1 -5 15 -19 66 -24
76 -8 3 6 16 10 28 10 12 0 31 8 42 16 19 15 18 16 -22 10 -29 -4 -43 -2 -46
7 -3 6 -6 2 -6 -9z"/>
<path d="M595 40 c3 -5 8 -10 11 -10 2 0 4 5 4 10 0 6 -5 10 -11 10 -5 0 -7
-4 -4 -10z"/>
<path d="M1130 46 c0 -2 8 -10 18 -17 15 -13 16 -12 3 4 -13 16 -21 21 -21 13z"/>
<path d="M755 14 c-19 -14 -18 -15 18 -12 20 1 37 6 37 10 0 13 28 9 33 -4 2
-7 8 -9 13 -5 5 4 2 12 -6 17 -23 14 -73 11 -95 -6z"/>
<path d="M2080 15 c0 -9 5 -15 11 -13 6 2 11 8 11 13 0 5 -5 11 -11 13 -6 2
-11 -4 -11 -13z"/>
<path d="M310 16 c0 -2 9 -6 20 -9 11 -3 20 -1 20 4 0 5 -9 9 -20 9 -11 0 -20
-2 -20 -4z"/>
<path d="M2770 10 c0 -5 12 -10 28 -9 24 0 25 1 7 9 -27 12 -35 12 -35 0z"/>
<path d="M1288 3 c7 -3 16 -2 19 1 4 3 -2 6 -13 5 -11 0 -14 -3 -6 -6z"/>
</g>
</svg>
